<svg width="52" height="52" viewBox="0 0 52 52" fill="none" xmlns="http://www.w3.org/2000/svg">
<path d="M24.4627 15.035C24.2855 15.3395 23.9299 15.568 23.4987 15.6948C21.1629 16.4309 15.8595 14.8828 14.1594 13.8678C13.3478 13.3856 12.7642 12.675 12.4086 11.8629C11.9005 10.6956 11.9513 9.27452 12.6626 8.08171C13.8546 6.07698 16.4431 5.39175 18.474 6.58455C20.4789 7.7772 25.656 13.0303 24.4627 15.035Z" fill="#FCB73E"/>
<path d="M23.4987 15.6949C21.1629 16.4309 15.8595 14.8828 14.1594 13.8678C13.3478 13.3856 12.7642 12.675 12.4086 11.8629C12.4346 11.8629 12.4346 11.8377 12.4346 11.8377C13.6266 9.83276 16.2151 9.14769 18.2448 10.3403C19.5397 11.1016 22.1022 13.5379 23.4987 15.6949Z" fill="#FD982E"/>
<path d="M24.0809 15.035C24.2581 15.3395 24.6137 15.568 25.0449 15.6948C27.3806 16.4309 32.684 14.8828 34.3841 13.8678C35.1957 13.3856 35.7794 12.675 36.135 11.8629C36.643 10.6956 36.5922 9.27452 35.881 8.08171C34.6889 6.07698 32.1004 5.39175 30.0695 6.58455C28.0646 7.7772 22.8876 13.0303 24.0809 15.035Z" fill="#FCB73E"/>
<path d="M25.0449 15.6949C27.3807 16.4309 32.6841 14.8828 34.3841 13.8678C35.1958 13.3856 35.7794 12.675 36.135 11.8629C36.109 11.8629 36.109 11.8377 36.109 11.8377C34.917 9.83276 32.3284 9.14769 30.2988 10.3403C29.0039 11.1016 26.4414 13.5379 25.0449 15.6949Z" fill="#FD982E"/>
<path d="M41.576 22.8816V43.3037C41.576 44.7839 40.3921 45.9354 38.9432 45.9354H9.59871C8.1514 45.9354 6.96753 44.7839 6.96753 43.3037V22.8816H41.576Z" fill="#E83D70"/>
<path d="M41.5142 43.8765C41.2562 45.0663 40.1995 45.9316 38.9433 45.9316H9.59693C8.14897 45.9316 6.96753 44.7835 6.96753 43.3024V22.8843H8.95624V41.3138C8.95624 42.7948 10.1377 43.9431 11.5852 43.9431H40.9316C41.1315 43.9431 41.3228 43.9181 41.5142 43.8765Z" fill="#CE2955"/>
<path d="M6.96753 22.8838H41.5719V24.8138H6.96753V22.8838Z" fill="#CE2955"/>
<path d="M44.2409 16.9402V21.2174C44.2409 22.1365 43.4959 22.8815 42.5768 22.8815H5.96671C5.04765 22.8815 4.30261 22.1365 4.30261 21.2174V16.9402C4.30261 16.0212 5.04765 15.2761 5.96671 15.2761H42.5768C43.4959 15.2761 44.2409 16.0212 44.2409 16.9402Z" fill="#E83D70"/>
<path d="M18.9919 15.2761H29.5519V22.8819H18.9919V15.2761Z" fill="#FCB73E"/>
<path d="M19.8097 22.8748H28.7332V45.9356H19.8097V22.8748Z" fill="#FEDD72"/>
<path d="M19.8062 22.8755H28.7342V45.9309H19.8062V22.8755Z" fill="#FCB73E"/>
<path d="M28.5589 15.275H19.9808C19.9808 12.937 21.9277 10.99 24.2739 10.99C24.3824 10.99 24.4986 10.9983 24.6067 11.0066C26.3041 11.1398 27.7439 12.2963 28.3013 13.8439C28.4675 14.2932 28.5589 14.7758 28.5589 15.275Z" fill="#E87F21"/>
<path d="M19.8062 22.8838H28.7332V24.8138H19.8062V22.8838Z" fill="#FD982E"/>
<path d="M19.8062 43.9431H28.7342V45.9319H19.8062V43.9431Z" fill="#FD982E"/>
<path d="M28.3014 13.8439H25.9214C24.4739 13.8439 23.617 12.1216 24.5819 11.0316L24.6067 11.0066C26.3041 11.1397 27.744 12.2963 28.3014 13.8439Z" fill="#FCB73E"/>
<path d="M44.3374 38.976C44.3374 40.5748 45.457 41.907 46.9542 42.2435C47.3833 42.34 47.6973 42.7038 47.6973 43.1436V44.3743C47.6973 45.2739 46.9681 46.0031 46.0685 46.0031H25.6738C24.7743 46.0031 24.045 45.2739 24.045 44.3743V43.1436C24.045 42.7038 24.359 42.34 24.7881 42.2435C26.2852 41.907 27.4049 40.5748 27.4049 38.976C27.4049 37.3772 26.2852 36.0451 24.7881 35.7085C24.359 35.612 24.045 35.2482 24.045 34.8084V33.5777C24.045 32.6865 24.7724 31.9592 25.6738 31.9592H46.0685C46.97 31.9592 47.6973 32.6865 47.6973 33.5777V34.8084C47.6973 35.2482 47.3833 35.612 46.9542 35.7085C45.457 36.045 44.3374 37.3772 44.3374 38.976Z" fill="#65B9FF"/>
<path d="M25.8313 43.1455V44.3738C25.8313 45.27 26.5615 46.0002 27.4661 46.0002H25.6736C24.7774 46.0002 24.0471 45.27 24.0471 44.3738V43.1455C24.0471 42.7058 24.3625 42.3406 24.7856 42.241C26.2877 41.9091 27.408 40.573 27.408 38.9798C27.408 37.3782 26.2877 36.0421 24.7856 35.7102C24.3625 35.6106 24.0471 35.2454 24.0471 34.8056V33.5774C24.0471 32.6895 24.7691 31.9592 25.6736 31.9592H27.4661C26.5615 31.9592 25.8313 32.6895 25.8313 33.5774V34.8056C25.8313 35.2454 26.1466 35.6106 26.5781 35.7102C28.0719 36.0421 29.1922 37.3782 29.1922 38.9798C29.1922 40.573 28.0719 41.9091 26.5781 42.241C26.1466 42.3406 25.8313 42.7058 25.8313 43.1455Z" fill="#3E7FFF"/>
<path d="M30.2375 31.9592H31.2619V32.9835H30.2375V31.9592Z" fill="#3E7FFF"/>
<path d="M31.2615 44.0562H30.2372V42.2106H31.2615V44.0562ZM31.2615 41.2878H30.2372V39.4426H31.2615V41.2878ZM31.2615 38.5198H30.2372V36.6742H31.2615V38.5198ZM31.2615 35.7519H30.2372V33.9062H31.2615V35.7519Z" fill="#3E7FFF"/>
<path d="M30.2375 44.979H31.2619V46.0033H30.2375V44.979Z" fill="#3E7FFF"/>
<path d="M33.3698 36.5447C33.3698 35.3322 34.0239 34.3445 35.3489 34.3445C36.6621 34.3445 37.3276 35.3214 37.3276 36.5447C37.3276 37.7639 36.667 38.745 35.3489 38.745C34.0316 38.745 33.3698 37.7647 33.3698 36.5447ZM36.4673 36.5447C36.4673 35.7964 36.1104 35.1438 35.3489 35.1438C34.5875 35.1438 34.23 35.796 34.23 36.5447C34.23 37.2967 34.5895 37.9462 35.3489 37.9462C36.1054 37.9462 36.4673 37.2995 36.4673 36.5447ZM35.0658 43.1395C34.9227 43.0042 34.9066 42.7978 35.0043 42.6418L40.0075 34.6396C40.1645 34.3872 40.4875 34.4023 40.6527 34.5411C40.7811 34.6497 40.8228 34.8638 40.6832 35.0822L35.7175 43.0349C35.5717 43.2698 35.276 43.3394 35.0658 43.1395ZM38.3604 41.1543C38.3604 39.9393 39.0167 38.954 40.3391 38.954C41.6551 38.954 42.3183 39.9334 42.3183 41.1543C42.3183 42.3712 41.66 43.3545 40.3391 43.3545C39.0247 43.3545 38.3604 42.3767 38.3604 41.1543ZM41.458 41.1543C41.458 40.4066 41.1017 39.7533 40.3391 39.7533C39.5777 39.7533 39.2207 40.4063 39.2207 41.1543C39.2207 41.9093 39.5827 42.5558 40.3391 42.5558C41.0978 42.5558 41.458 41.9069 41.458 41.1543Z" fill="white"/>
</svg>
